HIERARCHY
ROOT Hips
{
	OFFSET 0.00000 0.00000 0.00000
	CHANNELS 6 Xposition Yposition Zposition Zrotation Yrotation Xrotation 
	JOINT LHipJoint
	{
		OFFSET 0 0 0
		CHANNELS 3 Zrotation Yrotation Xrotation
		JOINT LeftUpLeg
		{
			OFFSET 1.75344 -1.53157 0.77399
			CHANNELS 3 Zrotation Yrotation Xrotation
			JOINT LeftLeg
			{
				OFFSET 2.25415 -6.19323 0.00000
				CHANNELS 3 Zrotation Yrotation Xrotation
				JOINT LeftFoot
				{
					OFFSET 2.30342 -6.32861 0.00000
					CHANNELS 3 Zrotation Yrotation Xrotation
					JOINT LeftToeBase
					{
						OFFSET 0.10958 -0.30108 1.49206
						CHANNELS 3 Zrotation Yrotation Xrotation
						End Site
						{
							OFFSET 0.00000 -0.00000 0.77783
						}
					}
				}
			}
		}
	}
	JOINT RHipJoint
	{
		OFFSET 0 0 0
		CHANNELS 3 Zrotation Yrotation Xrotation
		JOINT RightUpLeg
		{
			OFFSET -1.81912 -1.53156 0.77399
			CHANNELS 3 Zrotation Yrotation Xrotation
			JOINT RightLeg
			{
				OFFSET -2.22882 -6.12365 0.00000
				CHANNELS 3 Zrotation Yrotation Xrotation
				JOINT RightFoot
				{
					OFFSET -2.21943 -6.09785 0.00000
					CHANNELS 3 Zrotation Yrotation Xrotation
					JOINT RightToeBase
					{
						OFFSET -0.18931 -0.52012 1.59379
						CHANNELS 3 Zrotation Yrotation Xrotation
						End Site
						{
							OFFSET -0.00000 -0.00000 0.84686
						}
					}
				}
			}
		}
	}
	JOINT LowerBack
	{
		OFFSET 0 0 0
		CHANNELS 3 Zrotation Yrotation Xrotation
		JOINT Spine
		{
			OFFSET -0.00200 1.66634 -0.14248
			CHANNELS 3 Zrotation Yrotation Xrotation
			JOINT Spine1
			{
				OFFSET -0.00875 1.64542 0.09514
				CHANNELS 3 Zrotation Yrotation Xrotation
				JOINT Neck
				{
					OFFSET 0 0 0
					CHANNELS 3 Zrotation Yrotation Xrotation
					JOINT Neck1
					{
						OFFSET 0.02257 1.59605 0.00839
						CHANNELS 3 Zrotation Yrotation Xrotation
						JOINT Head
						{
							OFFSET -0.10214 1.57530 -0.23335
							CHANNELS 3 Zrotation Yrotation Xrotation
							End Site
							{
								OFFSET -0.03588 1.60717 -0.08062
							}
						}
					}
				}
				JOINT LeftShoulder
				{
					OFFSET 0 0 0
					CHANNELS 3 Zrotation Yrotation Xrotation
					JOINT LeftArm
					{
						OFFSET 2.54983 1.10186 0.40078
						CHANNELS 3 Zrotation Yrotation Xrotation
						JOINT LeftForeArm
						{
							OFFSET 4.28840 -0.00000 0.00000
							CHANNELS 3 Zrotation Yrotation Xrotation
							JOINT LeftHand
							{
								OFFSET 3.06552 -0.00000 -0.00000
								CHANNELS 3 Zrotation Yrotation Xrotation
								JOINT LeftFingerBase
								{
									OFFSET 0 0 0
									CHANNELS 3 Zrotation Yrotation Xrotation
									JOINT LeftHandIndex1
									{
										OFFSET 0.75304 -0.00000 0.00000
										CHANNELS 3 Zrotation Yrotation Xrotation
										End Site
										{
											OFFSET 0.60712 -0.00000 0.00000
										}
									}
								}
								JOINT LThumb
								{
									OFFSET 0 0 0
									CHANNELS 3 Zrotation Yrotation Xrotation
									End Site
									{
										OFFSET 0.61639 -0.00000 0.61639
									}
								}
							}
						}
					}
				}
				JOINT RightShoulder
				{
					OFFSET 0 0 0
					CHANNELS 3 Zrotation Yrotation Xrotation
					JOINT RightArm
					{
						OFFSET -2.60909 1.35448 0.21802
						CHANNELS 3 Zrotation Yrotation Xrotation
						JOINT RightForeArm
						{
							OFFSET -4.52172 -0.00000 -0.00000
							CHANNELS 3 Zrotation Yrotation Xrotation
							JOINT RightHand
							{
								OFFSET -2.89140 -0.00000 0.00000
								CHANNELS 3 Zrotation Yrotation Xrotation
								JOINT RightFingerBase
								{
									OFFSET 0 0 0
									CHANNELS 3 Zrotation Yrotation Xrotation
									JOINT RightHandIndex1
									{
										OFFSET -0.68054 -0.00000 0.00000
										CHANNELS 3 Zrotation Yrotation Xrotation
										End Site
										{
											OFFSET -0.54867 -0.00000 0.00000
										}
									}
								}
								JOINT RThumb
								{
									OFFSET 0 0 0
									CHANNELS 3 Zrotation Yrotation Xrotation
									End Site
									{
										OFFSET -0.55705 -0.00000 0.55705
									}
								}
							}
						}
					}
				}
			}
		}
	}
}
MOTION
Frames: 9
Frame Time: .0083333
7.9109 11.0729 24.4777 -178.4800 2.3004 -147.7370 0.0000 0.0000 0.0000 -9.0361 -8.7116 -98.0947 23.6814 19.6719 100.8205 2.9664 -25.1108 -33.4940 0.3460 -3.7797 -10.4577 0.0000 0.0000 0.0000 14.6775 16.9902 -94.0758 -23.7064 -19.6674 100.8947 -4.4516 -3.8701 -41.3851 -0.0343 -1.1950 3.2856 -3.7954 0.8782 62.5082 0.4007 2.2221 3.6700 0.4982 2.4495 -17.9477 -6.5054 -5.8185 -16.2114 7.8661 -3.7830 -17.0629 3.3476 -0.3584 -2.2478 -0.0000 0.0000 0.0000 -45.6009 -32.7643 22.5351 81.8924 -59.7502 -52.9845 -0.0000 0.0000 -41.8686 75.4662 -61.3213 -73.5377 -7.1250 0.0000 -0.0000 1.2428 -52.1951 -1.7439 -0.0000 0.0000 0.0000 29.9126 31.9779 27.3508 -64.3499 57.3619 -37.9831 0.0000 0.0000 14.7826 -40.8021 -40.9930 29.5210 7.1250 -0.0000 -0.0000 -10.5168 -78.7561 8.2785
7.9192 11.0854 24.4499 -178.4430 2.1362 -147.3560 0.0000 0.0000 0.0000 -8.8853 -8.7681 -98.3293 23.6500 19.6775 100.7272 2.7485 -26.0508 -32.8155 0.1378 -2.3928 -6.5924 0.0000 0.0000 0.0000 14.6951 17.0759 -94.1911 -23.6307 -19.6810 100.6700 -4.4799 -3.6888 -41.4465 -0.0655 -1.6518 4.5442 -3.7665 0.8632 62.9611 0.4101 2.2952 3.7907 0.4503 2.4993 -17.8080 -6.2290 -5.7957 -16.5972 7.5683 -3.8311 -16.6145 3.4565 -0.3734 -2.3461 0.0000 0.0000 0.0000 -46.3584 -31.3011 25.0212 78.4936 -59.4938 -50.0521 -0.0000 0.0000 -40.6339 77.0069 -60.0111 -75.0825 -7.1250 0.0000 -0.0000 2.9009 -52.5794 -4.0677 0.0000 0.0000 0.0000 30.1623 30.9824 28.5803 -62.2781 56.8870 -36.2430 0.0000 0.0000 13.6054 -40.5934 -41.0797 29.3829 7.1250 -0.0000 -0.0000 -9.8932 -78.7734 7.7895
7.9230 11.1042 24.4222 -178.3980 1.9828 -146.9710 0.0000 0.0000 0.0000 -8.7947 -8.8319 -98.5354 23.5999 19.6864 100.5786 2.6966 -26.4444 -32.7172 0.0830 -1.8578 -5.1128 0.0000 0.0000 0.0000 14.6822 17.1843 -94.3100 -23.5711 -19.6915 100.4931 -4.5192 -3.5666 -41.5788 -0.0928 -1.9643 5.4071 -3.6774 0.8802 63.3531 0.5180 2.4253 3.8054 0.4634 2.5529 -17.8074 -6.2759 -5.8117 -16.6762 7.4599 -3.9136 -16.3195 3.4168 -0.4368 -2.2250 -0.0000 -0.0000 0.0000 -47.5752 -29.4926 27.6000 75.3767 -59.1764 -47.3708 -0.0000 0.0000 -39.6546 77.8118 -59.4550 -75.9209 -7.1250 0.0000 -0.0000 3.6423 -52.8433 -5.1050 -0.0000 -0.0000 0.0000 31.6328 29.4271 30.4926 -60.3011 56.3896 -34.5918 0.0000 0.0000 13.6561 -40.7595 -40.5974 29.2881 7.1250 -0.0000 -0.0000 -10.7031 -78.3300 8.3324
7.9253 11.1249 24.3916 -178.4090 1.8871 -146.5770 0.0000 0.0000 0.0000 -8.8160 -8.9158 -98.6784 23.5336 19.6980 100.3819 2.7867 -26.3003 -33.0724 0.1135 -2.1719 -5.9810 0.0000 0.0000 0.0000 14.5632 17.2873 -94.4451 -23.5063 -19.7027 100.3007 -4.5509 -3.5943 -41.7301 -0.1022 -2.0610 5.6743 -3.6256 0.8951 63.8121 0.5488 2.5069 3.7974 0.4257 2.5908 -17.8280 -6.1746 -5.8348 -16.8705 7.2880 -4.0188 -15.9829 3.3233 -0.5142 -2.0747 0.0000 -0.0000 0.0000 -48.7145 -27.4983 30.9132 69.9272 -58.4215 -42.7086 -0.0000 0.0000 -35.1946 82.9904 -56.6233 -81.6240 -7.1250 0.0000 -0.0000 7.8006 -55.0940 -10.8781 0.0000 -0.0000 0.0000 32.6369 27.9160 32.2587 -58.1763 55.8041 -32.8281 0.0000 0.0000 13.8969 -41.2331 -40.3696 29.5833 7.1250 -0.0000 -0.0000 -12.0892 -78.2548 9.3977
7.9339 11.1459 24.3605 -178.5470 1.8029 -146.0970 0.0000 0.0000 0.0000 -8.9145 -9.0740 -98.8856 23.4504 19.7121 100.1348 2.8261 -26.2645 -33.2371 0.1299 -2.3236 -6.4010 0.0000 0.0000 0.0000 14.2905 17.3867 -94.7280 -23.4304 -19.7155 100.0758 -4.5661 -3.5829 -41.7936 -0.1259 -2.2870 6.2994 -3.7399 0.9986 64.0813 0.6040 2.5818 3.8389 0.4971 2.6315 -17.7827 -6.0192 -5.7952 -16.9725 7.1005 -4.0480 -15.7216 3.2211 -0.5563 -1.9734 0.0000 -0.0000 0.0000 -49.6797 -25.7873 33.2396 66.2565 -57.7588 -39.5923 -0.0000 0.0000 -33.1919 85.2474 -55.6895 -84.2524 -7.1250 0.0000 -0.0000 9.3877 -56.3196 -13.0447 0.0000 -0.0000 0.0000 33.2622 26.4483 33.9861 -56.0227 55.1534 -31.0536 0.0000 0.0000 13.7469 -41.3819 -40.3627 29.7088 7.1250 -0.0000 -0.0000 -12.4848 -78.2983 9.7179
7.9454 11.1723 24.3286 -178.6180 1.7507 -145.6140 0.0000 0.0000 0.0000 -8.9896 -9.0959 -99.1024 23.3573 19.7276 99.8590 2.8403 -26.2435 -33.2932 0.1652 -2.6185 -7.2184 0.0000 0.0000 0.0000 14.1659 17.5358 -94.9257 -23.3235 -19.7331 99.7590 -4.5436 -3.8015 -41.7713 -0.1129 -2.1663 5.9656 -3.9104 1.1438 64.2273 0.6643 2.6786 3.9457 0.5912 2.6842 -17.6541 -6.6384 -2.7543 -16.9454 6.1904 -4.5284 -15.7906 3.0915 -3.1655 -2.0438 -0.0000 -0.0000 0.0000 -50.4410 -24.2711 34.3820 65.0627 -57.5146 -38.5838 -0.0000 0.0000 -35.3656 81.6379 -58.0545 -80.1724 -7.1250 0.0000 -0.0000 5.9064 -54.6479 -8.2426 -0.0000 -0.0000 0.0000 33.5167 24.9397 35.7401 -54.1652 54.5432 -29.5348 0.0000 0.0000 12.9011 -41.2486 -40.6846 29.7552 7.1250 -0.0000 -0.0000 -11.9306 -78.5892 9.3553
7.9545 11.1968 24.2952 -178.5540 1.6633 -145.0790 0.0000 0.0000 0.0000 -8.9081 -9.0834 -99.4140 23.2690 19.7418 99.5977 2.8832 -26.0219 -33.4115 0.2422 -3.1668 -8.7436 0.0000 0.0000 0.0000 14.2199 17.6818 -95.1364 -23.2096 -19.7512 99.4218 -4.5262 -4.0382 -41.7795 -0.0800 -1.8247 5.0215 -3.8668 0.7474 64.3531 0.2650 2.2807 4.3078 0.3160 2.5677 -17.1642 -6.0999 -2.4972 -17.5957 6.3349 -4.2600 -15.7118 3.0399 -3.0772 -1.9363 -0.0000 -0.0000 0.0000 -49.0519 -22.8858 34.6232 63.1350 -57.0891 -36.9616 -0.0000 0.0000 -36.9531 78.1580 -59.0809 -76.2657 -7.1250 0.0000 -0.0000 4.1083 -52.9175 -5.7576 -0.0000 -0.0000 0.0000 31.9827 24.3716 37.3191 -53.3166 54.2486 -28.8449 0.0000 0.0000 9.7260 -41.5566 -41.2676 30.3151 7.1250 -0.0000 -0.0000 -12.3871 -79.3016 9.8942
7.9622 11.2265 24.2594 -178.4650 1.6066 -144.5350 0.0000 0.0000 0.0000 -8.8159 -9.0493 -99.6802 23.1674 19.7577 99.2968 2.8890 -26.0751 -33.4550 0.2498 -3.2161 -8.8811 0.0000 0.0000 0.0000 14.2699 17.8362 -95.3082 -23.0868 -19.7700 99.0586 -4.5364 -4.0546 -41.8311 -0.0716 -1.7260 4.7491 -3.8917 0.8415 64.4397 0.2692 2.3952 4.3978 0.2749 2.6155 -17.0544 -5.9132 -2.5407 -17.6954 6.2793 -4.3078 -15.4875 2.9735 -3.0877 -1.8429 0.0000 0.0000 0.0000 -49.7005 -21.1968 36.4047 60.4082 -56.4177 -34.6810 -0.0000 0.0000 -36.0972 76.2484 -59.4839 -74.1414 -7.1250 0.0000 -0.0000 3.3132 -51.9810 -4.6525 0.0000 0.0000 0.0000 31.9029 22.6047 39.4668 -52.1045 53.8098 -27.8639 0.0000 0.0000 8.3950 -42.6206 -41.5475 31.3966 7.1250 -0.0000 -0.0000 -15.3753 -79.9511 12.4958
7.9681 11.2614 24.2240 -178.4850 1.6208 -144.0280 0.0000 0.0000 0.0000 -8.8683 -9.0537 -99.8243 23.0464 19.7760 98.9390 2.7125 -26.6271 -32.8528 0.0914 -1.9494 -5.3659 0.0000 0.0000 0.0000 14.1963 17.9198 -95.4572 -22.9590 -19.7888 98.6810 -4.5315 -3.9424 -41.7682 -0.0883 -1.9170 5.2763 -3.8553 0.6887 64.6131 0.1290 2.2283 4.4670 0.1810 2.5556 -16.9571 -6.0564 -2.5936 -17.7437 6.4584 -4.2983 -15.2481 3.0537 -3.0529 -1.7453 -0.0000 0.0000 0.0000 -49.5272 -19.2380 38.0005 57.6140 -55.6399 -32.3635 -0.0000 0.0000 -35.4528 76.5877 -59.3699 -74.5105 -7.1250 0.0000 -0.0000 3.4984 -52.1295 -4.9111 -0.0000 0.0000 0.0000 33.0547 21.3737 41.7757 -50.0145 53.0013 -26.1857 0.0000 0.0000 8.6451 -43.6006 -41.7043 32.3566 7.1250 -0.0000 -0.0000 -18.4767 -80.4325 15.2132
